# AST/ASF file generated using VICON BodyLanguage
# -----------------------------------------------
:version 1.10
:name VICON
:units
  mass 1.0
  length 0.45
  angle deg
:documentation
   .ast/.asf automatically generated from VICON data using
   VICON BodyBuilder and BodyLanguage model FoxedUp or BRILLIANT.MOD
:root
   order TX TY TZ RX RY RZ
   axis XYZ
   position 0 0 0  
   orientation 0 0 0 
:bonedata
  begin
     id 1 
     name lhipjoint
     direction 0.643824 -0.71708 0.266994 
     length 2.52133 
     axis 0 0 0  XYZ
  end
  begin
     id 2 
     name lfemur
     direction 0.34202 -0.939693 0  
     length 7.51824  
     axis 0 0 20  XYZ
    dof rx ry rz
    limits (-160.0 20.0)
           (-70.0 70.0)
           (-60.0 70.0)
  end
  begin
     id 3 
     name ltibia
     direction 0.34202 -0.939693 0   
     length 7.3685   
     axis 0 0 20   XYZ
    dof rx
    limits (-10.0 170.0)
  end
  begin
     id 4 
     name lfoot
     direction 0.105419 -0.289636 0.951314   
     length 2.20972   
     axis -90 7.62852e-016 20   XYZ
    dof rx rz
    limits (-45.0 90.0)
           (-70.0 20.0)
  end
  begin
     id 5 
     name ltoes
     direction 1.53549e-011 -4.21833e-011 1   
     length 1.10139   
     axis -90 7.62852e-016 20   XYZ
    dof rx
    limits (-90.0 20.0)
  end
  begin
     id 6 
     name rhipjoint
     direction -0.608823 -0.743445 0.276811   
     length 2.43192  
     axis 0 0 0  XYZ 
  end
  begin
     id 7 
     name rfemur
     direction -0.34202 -0.939693 0   
     length 7.69715   
     axis 0 0 -20   XYZ
    dof rx ry rz
    limits (-160.0 20.0)
           (-70.0 70.0)
           (-70.0 60.0)
  end
  begin
     id 8 
     name rtibia
     direction -0.34202 -0.939693 0   
     length 7.44924   
     axis 0 0 -20   XYZ
    dof rx
    limits (-10.0 170.0)
 end
 begin
     id 9 
     name rfoot
     direction -0.103614 -0.284677 0.953007   
     length 2.22623  
     axis -90 -7.62852e-016 -20   XYZ
    dof rx rz
    limits (-45.0 90.0)
           (-20.0 70.0)
  end
  begin
     id 10 
     name rtoes
     direction -1.53537e-011 -4.22026e-011 1   
     length 1.11   
     axis -90 -7.62852e-016 -20   XYZ
    dof rx
    limits (-90.0 20.0)
  end
  begin
     id 11 
     name lowerback
     direction -0.0101212 0.99662 -0.0815298   
     length 2.08277   
     axis 0 0 0   XYZ
    dof rx ry rz
    limits (-20.0 45.0)
           (-30.0 30.0)
           (-30.0 30.0)
  end
  begin
     id 12 
     name upperback
     direction 0.024314 0.999591 -0.0150645   
     length 2.08524   
     axis 0 0 0   XYZ
    dof rx ry rz
    limits (-20.0 45.0)
           (-30.0 30.0)
           (-30.0 30.0)
  end
  begin
     id 13 
     name thorax
     direction 0.0285959 0.999323 0.0231357   
     length 2.09645   
     axis 0 0 0   XYZ
    dof rx ry rz
    limits (-20.0 45.0)
           (-30.0 30.0)
           (-30.0 30.0)
  end
  begin
     id 14 
     name lowerneck
     direction -0.065512 0.979301 0.191515   
     length 1.63798   
     axis 0 0 0   XYZ
    dof rx ry rz
    limits (-20.0 45.0)
           (-30.0 30.0)
           (-30.0 30.0)
  end
  begin
     id 15 
     name upperneck
     direction 0.0498479 0.98191 -0.182667   
     length 1.68731   
     axis 0 0 0   XYZ
    dof rx ry rz
    limits (-20.0 45.0)
           (-30.0 30.0)
           (-30.0 30.0)
  end
  begin
     id 16
     name head
     direction 0.0230358 0.996257 -0.0833175  
     length 1.69785  
     axis 0 0 0   XYZ
    dof rx ry rz
    limits (-20.0 45.0)
           (-30.0 30.0)
           (-30.0 30.0)
  end
  begin
     id 17 
     name lclavicle
     direction 0.967963 0.201165 -0.150269  
     length 3.63976  
     axis 0 0 0   XYZ
    dof ry rz
    limits (-20.0 10.0)
           (0.0 20.0)
  end
  begin
     id 18 
     name lhumerus
     direction 1 -4.48954e-011 -2.92837e-028   
     length 5.32462   
     axis 180 -30 -90   XYZ
    dof rx ry rz
    limits (-60.0 90.0)
           (-90.0 90.0)
           (-90.0 90.0)
  end
  begin
     id 19
     name lradius
     direction 1 -4.48958e-011 -6.39511e-027   
     length 3.48402   
     axis 180 -30 -90   XYZ
    dof rx
    limits (-10.0 170.0)
  end
  begin
     id 20
     name lwrist
     direction 1 -4.48975e-011 -1.1413e-026   
     length 1.74201   
     axis 6.88575e-015 90 90   XYZ
    dof ry
    limits (-180.0 0.0)
 end
  begin
     id 21 
     name lhand
     direction 1 -4.48899e-011 -2.28192e-026   
     length 0.572476   
     axis 1.45643e-014 90 90   XYZ
    dof rx rz
    limits (-90.0 90.0)
           (-45.0 45.0)
  end
  begin
     id 22 
     name lfingers
     direction 1 -4.49155e-011 -4.5684e-026   
     length 0.461545   
     axis 2.91283e-014 90 90   XYZ
    dof rx
    limits (0.0 90.0)
  end
  begin
     id 23
     name lthumb
     direction 0.707107 -6.34943e-011 0.707107   
     length 0.662688   
     axis -90 45 -2.25915e-014   XYZ
    dof rx rz
    limits (-45.0 45.0)
           (-45.0 45.0)
  end
  begin
     id 24 
     name rclavicle
     direction -0.964103 0.264019 -0.0282629   
     length 3.54491  
     axis 0 0 0   XYZ 
    dof ry rz
    limits (-10.0 20.0)
           (-20.0 0.0)
  end
  begin
     id 25 
     name rhumerus
     direction -1 -4.48964e-011 -2.45032e-027  
     length 5.33589   
     axis 180 30 90   XYZ
    dof rx ry rz
    limits (-90.0 60.0)
           (-90.0 90.0)
           (-90.0 90.0)
  end
  begin
     id 26 
     name rradius
     direction -1 -4.48987e-011 -1.55093e-027   
     length 3.64134   
     axis 180 30 90   XYZ
    dof rx
    limits (-10.0 170.0)
  end
  begin
     id 27 
     name rwrist
     direction -1 -4.4897e-011 -1.14128e-026   
     length 1.82067   
     axis 6.88575e-015 -90 -90   XYZ
    dof ry
    limits (-180.0 0.0)
  end
  begin
     id 28
     name rhand
     direction -1 -4.49021e-011 -2.28301e-026   
     length 0.734811   
     axis 1.45643e-014 -90 -90   XYZ
    dof rx rz
    limits (-90.0 90.0)
           (-45.0 45.0)
  end
  begin
     id 29
     name rfingers
     direction -1 -4.48862e-011 -4.56319e-026   
     length 0.592424   
     axis 2.91283e-014 -90 -90   XYZ
    dof rx
    limits (0.0 90.0)
  end
  begin
     id 30
     name rthumb
     direction -0.707107 -6.34978e-011 0.707107   
     length 0.850605   
     axis -90 -45 2.25915e-014   XYZ
    dof rx rz
    limits (-45.0 45.0)
           (-45.0 45.0)
  end
:hierarchy
  begin
    root lhipjoint rhipjoint lowerback
    lhipjoint lfemur
    lfemur ltibia
    ltibia lfoot
    lfoot ltoes
    rhipjoint rfemur
    rfemur rtibia
    rtibia rfoot
    rfoot rtoes
    lowerback upperback
    upperback thorax
    thorax lowerneck lclavicle rclavicle
    lowerneck upperneck
    upperneck head
    lclavicle lhumerus
    lhumerus lradius
    lradius lwrist
    lwrist lhand lthumb
    lhand lfingers
    rclavicle rhumerus
    rhumerus rradius
    rradius rwrist
    rwrist rhand rthumb
    rhand rfingers
  end

#!OML:ASF F:\VICON\USERDATA\INSTALL\rory3\rory3.ASF
:FULLY-SPECIFIED
:DEGREES
291
root -1.76548 19.52 -0.259112 1.7308 3.72888 2.73336
lowerback 8.54261 -0.974943 -3.15841
upperback -0.796298 -1.52489 1.86082
thorax -5.49766 -0.628504 3.92678
lowerneck -25.7648 -3.75025 -11.1351
upperneck 22.0069 -2.80804 6.93253
head 11.73 -1.30031 3.95635
rclavicle 2.41026e-014 -1.66979e-014
rhumerus -17.0035 -35.2551 -19.0443
rradius 48.4097
rwrist -10.0974
rhand -25.4828 -12.5655
rfingers 7.12502
rthumb 1.04523 -42.5427
lclavicle 2.41026e-014 -1.66979e-014
lhumerus -28.2754 25.6904 15.2145
lradius 49.3029
lwrist 43.4468
lhand -22.5257 39.3634
lfingers 7.12502
lthumb 3.90112 69.3075
rfemur -11.7284 6.11351 7.45003
rtibia 35.7768
rfoot -2.26204 -4.20401
rtoes -5.38987
lfemur -8.35549 -4.88286 -12.9157
ltibia 27.4873
lfoot 4.3128 3.57665
ltoes -29.9923
292
root -1.77447 19.5187 -0.261634 1.8799 3.72694 2.77595
lowerback 8.58685 -0.949724 -3.23185
upperback -0.770091 -1.50312 1.80348
thorax -5.49684 -0.616831 3.90605
lowerneck -25.4745 -3.68159 -11.1132
upperneck 21.7468 -2.7537 6.95722
head 11.5706 -1.27004 3.96344
rclavicle 1.26725e-014 -2.94201e-014
rhumerus -18.7445 -34.4873 -20.4754
rradius 48.3195
rwrist -10.3915
rhand -26.0187 -12.2285
rfingers 7.12502
rthumb 0.527656 -42.2076
lclavicle 1.26725e-014 -2.94201e-014
lhumerus -29.227 25.6528 17.2917
lradius 48.8553
lwrist 43.6041
lhand -22.6585 39.2649
lfingers 7.12502
lthumb 3.77284 69.2113
rfemur -12.3035 4.86555 7.94205
rtibia 36.4522
rfoot -1.46248 -3.71509
rtoes -6.21671
lfemur -8.9315 -3.86568 -13.4626
ltibia 28.0042
lfoot 5.33882 2.7096
ltoes -29.2836
293
root -1.78245 19.508 -0.264074 2.01502 3.71832 2.81514
lowerback 8.63219 -0.930275 -3.25757
upperback -0.716694 -1.48431 1.73934
thorax -5.46901 -0.609238 3.85092
lowerneck -25.3888 -3.63681 -11.1371
upperneck 21.6512 -2.69892 6.99494
head 11.5133 -1.24189 3.98837
rclavicle -2.23633e-014 2.38542e-015
rhumerus -20.4012 -33.7713 -22.0199
rradius 48.3028
rwrist -10.6581
rhand -26.3742 -11.9538
rfingers 7.12502
rthumb 0.184327 -41.9335
lclavicle -2.23633e-014 2.38542e-015
lhumerus -30.0354 25.825 19.3979
lradius 48.3391
lwrist 43.5421
lhand -23.0243 39.282
lfingers 7.12502
lthumb 3.41967 69.2344
rfemur -12.882 3.68162 8.43511
rtibia 37.1432
rfoot -0.719622 -3.15264
rtoes -6.87822
lfemur -9.54303 -2.95002 -14.0331
ltibia 28.622
lfoot 5.83856 1.65414
ltoes -29.3811
294
root -1.79035 19.484 -0.26797 2.17922 3.68835 2.83908
lowerback 8.60793 -0.918973 -3.29334
upperback -0.623814 -1.47336 1.70818
thorax -5.35849 -0.607403 3.83425
lowerneck -25.5358 -3.63461 -11.2245
upperneck 21.6936 -2.65686 7.039
head 11.5543 -1.22328 4.02878
rclavicle 6.85807e-015 -2.38542e-015
rhumerus -21.8472 -33.0451 -23.6801
rradius 48.2876
rwrist -10.9025
rhand -26.6291 -11.7112
rfingers 7.12502
rthumb -0.0618145 -41.6909
lclavicle 6.85807e-015 -2.38542e-015
lhumerus -30.8317 25.9949 21.5699
lradius 47.9113
lwrist 43.637
lhand -23.3375 39.1462
lfingers 7.12502
lthumb 3.11716 69.1032
rfemur -13.5234 2.5591 8.93089
rtibia 37.855
rfoot -0.0483762 -2.49476
rtoes -7.55579
lfemur -10.1989 -2.03403 -14.6043
ltibia 29.2907
lfoot 5.87524 0.286468
ltoes -30.0351
295
root -1.79843 19.4427 -0.271653 2.35739 3.68015 2.80002
lowerback 8.49678 -0.913481 -3.30219
upperback -0.514813 -1.46286 1.71175
thorax -5.18173 -0.60797 3.83603
lowerneck -25.5042 -3.60811 -11.2652
upperneck 21.5689 -2.60621 7.05009
head 11.4964 -1.20051 4.04484
rclavicle 2.03754e-015 -1.03368e-014
rhumerus -23.161 -32.5889 -25.4308
rradius 48.2374
rwrist -10.8626
rhand -26.9887 -11.3833
rfingers 7.12502
rthumb -0.409128 -41.3627
lclavicle 2.03754e-015 -1.03368e-014
lhumerus -31.5856 26.1148 23.7694
lradius 47.4683
lwrist 43.6619
lhand -23.3038 38.8451
lfingers 7.12502
lthumb 3.1497 68.8016
rfemur -14.1303 1.48561 9.52077
rtibia 38.5801
rfoot 0.394629 -1.79347
rtoes -7.40813
lfemur -10.8896 -1.06033 -15.1003
ltibia 30.0023
lfoot 5.80156 -1.23839
ltoes -29.905
296
root -1.80844 19.3868 -0.274468 2.53396 3.76811 2.83961
lowerback 8.38389 -0.93537 -3.39011
upperback -0.417283 -1.49947 1.66287
thorax -5.01149 -0.630104 3.8335
lowerneck -25.4213 -3.54932 -11.1358
upperneck 21.449 -2.55411 6.95514
head 11.4264 -1.1773 3.99235
rclavicle 1.5207e-014 -7.95139e-015
rhumerus -24.4948 -32.2219 -27.2869
rradius 48.2411
rwrist -10.8439
rhand -27.0714 -10.9338
rfingers 7.12502
rthumb -0.48907 -40.913
lclavicle 1.5207e-014 -7.95139e-015
lhumerus -32.2151 26.3417 25.9099
lradius 46.8786
lwrist 43.2243
lhand -23.0089 38.5097
lfingers 7.12502
lthumb 3.43455 68.4618
rfemur -14.6923 0.408526 10.0565
rtibia 39.3284
rfoot 0.670535 -1.1092
rtoes -6.6614
lfemur -11.6078 -0.162426 -15.6899
ltibia 30.7407
lfoot 5.5502 -2.62019
ltoes -29.3013
297
root -1.81972 19.3199 -0.278566 2.70072 3.90279 2.82983
lowerback 8.36042 -0.957897 -3.42383
upperback -0.3707 -1.53394 1.61996
thorax -4.94658 -0.649161 3.81
lowerneck -25.3404 -3.50876 -10.969
upperneck 21.395 -2.54168 6.85165
head 11.3856 -1.17118 3.92562
rclavicle 2.39536e-014 -1.19271e-014
rhumerus -25.8957 -31.8193 -29.1252
rradius 48.3022
rwrist -11.0437
rhand -26.8977 -10.1498
rfingers 7.12502
rthumb -0.321323 -40.1293
lclavicle 2.39536e-014 -1.19271e-014
lhumerus -32.7291 26.5022 28.0935
lradius 46.234
lwrist 42.7809
lhand -22.7877 38.0816
lfingers 7.12502
lthumb 3.64809 68.0301
rfemur -15.2401 -0.64348 10.6602
rtibia 40.0876
rfoot 0.897832 -0.315033
rtoes -6.08309
lfemur -12.3196 0.660654 -16.2404
ltibia 31.5077
lfoot 5.09139 -3.95124
ltoes -29.0852
298
root -1.83223 19.2445 -0.285101 2.79586 4.00336 2.72705
lowerback 8.52525 -0.940346 -3.40152
upperback -0.377874 -1.5138 1.60975
thorax -5.04973 -0.637186 3.78934
lowerneck -25.2385 -3.50022 -10.9624
upperneck 21.418 -2.57255 6.95085
head 11.3798 -1.17343 3.95732
rclavicle -1.0138e-014 7.95139e-016
rhumerus -27.3257 -31.4244 -30.9344
rradius 48.3559
rwrist -11.2503
rhand -27.0141 -9.66789
rfingers 7.12502
rthumb -0.433749 -39.6472
lclavicle -1.0138e-014 7.95139e-016
lhumerus -33.1834 26.4901 30.378
lradius 45.6125
lwrist 42.5903
lhand -22.6061 37.861
lfingers 7.12502
lthumb 3.82346 67.8065
rfemur -15.7358 -1.46566 11.3862
rtibia 40.8551
rfoot 1.02117 0.391979
rtoes -5.82196
lfemur -12.9491 1.46954 -16.6852
ltibia 32.2764
lfoot 4.55447 -5.29952
ltoes -29.1252
299
root -1.84431 19.1572 -0.293085 2.88236 4.08917 2.63578
lowerback 8.67483 -0.907628 -3.39769
upperback -0.389799 -1.47422 1.61234
thorax -5.15025 -0.614961 3.78971
lowerneck -25.067 -3.50494 -10.9453
upperneck 21.4907 -2.61609 6.97713
head 11.3804 -1.192 3.9584
rclavicle 1.03865e-014 -1.98785e-014
rhumerus -28.8306 -30.9307 -32.7285
rradius 48.5761
rwrist -11.8564
rhand -27.3061 -9.63622
rfingers 7.12502
rthumb -0.715689 -39.6148
lclavicle 1.03865e-014 -1.98785e-014
lhumerus -33.6333 26.129 32.86
lradius 45.174
lwrist 42.7355
lhand -22.5314 37.7869
lfingers 7.12502
lthumb 3.89565 67.731
rfemur -16.2473 -2.26905 12.1071
rtibia 41.6351
rfoot 1.0875 0.939978
rtoes -5.95875
lfemur -13.5344 2.13077 -17.134
ltibia 33.0252
lfoot 3.99054 -6.47456
ltoes -29.1975
300
root -1.85526 19.053 -0.301478 2.99438 4.21312 2.59872
lowerback 8.73404 -0.896938 -3.40244
upperback -0.356109 -1.46327 1.58666
thorax -5.1498 -0.610268 3.76509
lowerneck -24.827 -3.50995 -10.9034
upperneck 21.3769 -2.66022 6.96344
head 11.2968 -1.21162 3.93474
rclavicle 1.47598e-014 1.59028e-014
rhumerus -30.2031 -30.4519 -34.6535
rradius 48.8022
rwrist -12.8171
rhand -27.5903 -10.1629
rfingers 7.12502
rthumb -0.990228 -40.1404
lclavicle 1.47598e-014 1.59028e-014
lhumerus -34.0435 25.5421 35.4811
lradius 44.9321
lwrist 43.1246
lhand -22.5267 37.8065
lfingers 7.12502
lthumb 3.90018 67.7505
rfemur -16.7682 -3.08787 12.7683
rtibia 42.4139
rfoot 1.12511 1.21099
rtoes -6.16361
lfemur -14.142 2.75356 -17.6632
ltibia 33.7772
lfoot 3.53633 -7.47034
ltoes -29.7913
301
root -1.86602 18.9345 -0.307805 3.09976 4.32679 2.66692
lowerback 8.78402 -0.904765 -3.53015
upperback -0.313313 -1.49031 1.54502
thorax -5.12872 -0.621952 3.79765
lowerneck -24.4694 -3.45814 -10.9281
upperneck 21.0794 -2.63587 7.05744
head 11.1183 -1.19062 3.96919
rclavicle 1.57537e-014 -3.18055e-015
rhumerus -31.4109 -29.7957 -36.7941
rradius 49.1338
rwrist -13.8757
rhand -27.9739 -11.3297
rfingers 7.12502
rthumb -1.36072 -41.3051
lclavicle 1.57537e-014 -3.18055e-015
lhumerus -34.4589 25.1744 38.0435
lradius 44.7366
lwrist 43.5748
lhand -22.7116 38.0472
lfingers 7.12502
lthumb 3.7216 67.9944
rfemur -17.2467 -3.85419 13.3033
rtibia 43.198
rfoot 1.12709 1.03514
rtoes -6.18792
lfemur -14.7238 3.24301 -18.3115
ltibia 34.527
lfoot 3.31276 -8.1376
ltoes -29.9699
302
root -1.8776 18.8074 -0.310305 3.18999 4.40093 2.5833
lowerback 8.82392 -0.933222 -3.53811
upperback -0.306997 -1.52915 1.56598
thorax -5.14032 -0.640445 3.83014
lowerneck -24.0941 -3.34798 -10.9701
upperneck 20.8776 -2.52051 7.12151
head 10.9633 -1.13569 4.01242
rclavicle -1.46107e-014 7.95139e-015
rhumerus -32.4934 -29.1395 -39.0293
rradius 49.418
rwrist -14.93
rhand -28.1565 -12.032
rfingers 7.12502
rthumb -1.53702 -42.0062
lclavicle -1.46107e-014 7.95139e-015
lhumerus -34.9746 24.9091 40.5353
lradius 44.551
lwrist 44.0117
lhand -22.7951 38.1538
lfingers 7.12502
lthumb 3.64097 68.1024
rfemur -17.7319 -4.55516 14.0302
rtibia 43.9821
rfoot 1.09796 0.53838
rtoes -7.02138
lfemur -15.285 3.68097 -18.7903
ltibia 35.3089
lfoot 3.23795 -8.70686
ltoes -30.1722
